<svg width="56" height="56" viewBox="0 0 56 56" fill="none" xmlns="http://www.w3.org/2000/svg">
<path d="M46.6667 32.6667L47.3738 31.9596L48.0809 32.6667L47.3738 33.3738L46.6667 32.6667ZM8.33332 14C8.33332 13.4477 8.78104 13 9.33332 13C9.88561 13 10.3333 13.4477 10.3333 14L8.33332 14ZM35.7071 20.2929L47.3738 31.9596L45.9595 33.3738L34.2929 21.7071L35.7071 20.2929ZM47.3738 33.3738L35.7071 45.0404L34.2929 43.6262L45.9595 31.9596L47.3738 33.3738ZM46.6667 33.6667L15.3333 33.6667L15.3333 31.6667L46.6667 31.6667L46.6667 33.6667ZM8.33332 26.6667L8.33332 14L10.3333 14L10.3333 26.6667L8.33332 26.6667ZM15.3333 33.6667C11.4673 33.6667 8.33332 30.5327 8.33332 26.6667L10.3333 26.6667C10.3333 29.4281 12.5719 31.6667 15.3333 31.6667L15.3333 33.6667Z" fill="rgba(236, 150, 255, 0.75)"/>
</svg>
